<svg width="90" height="47" viewBox="0 0 90 47" fill="none" xmlns="http://www.w3.org/2000/svg">
<path d="M33.5031 35.5694C34.1911 34.7898 35.0099 33.7453 35.2986 32.9122C40.2552 25.0514 39.8939 16.897 39.6729 14.6273C39.6325 14.2066 39.6301 13.7824 39.5957 13.3605C38.5452 0.430179 22.4658 0 22.4658 0C17.0636 0 12.946 1.26915 9.81353 3.10988C9.81353 3.10988 9.80996 3.11107 9.80521 3.11464C8.9401 3.62325 8.15104 4.17582 7.42972 4.75692C5.01145 6.47169 1.58428 9.03494 1.30977 9.97729C1.15054 10.5239 0.732242 12.2328 0.34722 14.2779C0.294933 14.5583 0.248588 14.84 0.216503 15.1228C-0.328945 19.9237 0.328206 24.0258 0.328206 24.0258C0.929506 28.5677 2.37809 32.1077 3.85757 34.6817C6.02273 38.4523 9.38929 41.4077 13.4475 42.8765C18.3648 39.5574 26.6273 34.9051 33.5031 35.5682V35.5694Z" fill="url(#paint0_linear_1410_3692)"/>
<path d="M21.0838 43.8055C23.0208 43.5643 24.8735 42.8548 26.5003 41.777C28.858 40.2144 30.8021 38.5008 32.4051 36.7159C23.5413 37.8092 18.6573 40.8061 15.9775 43.6154C17.9395 43.9992 19.6745 43.9826 21.0838 43.8067V43.8055Z" fill="#C03A27"/>
<path d="M34.197 35.3843C33.0538 35.1276 31.6171 34.7997 31.1477 34.6594C30.3265 34.4123 29.9974 33.9191 29.8072 33.5079C29.6147 33.098 29.1501 32.5228 28.3551 32.5228C27.9451 32.5228 27.5518 32.6393 27.2143 32.8496C26.8792 33.0576 26.6011 33.3594 26.424 33.7302C26.3147 33.9583 26.1804 34.1984 26.0212 34.436C25.8109 34.7426 26.0426 35.1526 26.4133 35.1217C26.8685 35.0849 27.4448 35.0647 28.115 35.1003C28.5024 35.1205 28.5512 35.6743 28.1721 35.7575C26.0105 36.2328 22.5096 37.1965 19.5531 38.9137C19.3843 39.0123 19.2227 38.7806 19.3712 38.657C19.7503 38.3433 20.2055 38.0022 20.7271 37.6624C21.0836 37.4306 21.5031 37.1193 21.9416 36.7485L21.9464 36.7462C21.9464 36.7462 21.9701 36.726 22.0117 36.6891C22.1817 36.5441 22.3528 36.3897 22.5263 36.228C22.9291 35.8597 23.4068 35.401 23.4912 35.231C24.5524 34.0177 25.433 32.5549 25.4912 31.1122C25.6005 28.41 24.9065 25.7635 20.9898 24.9685C17.1895 24.1973 11.2192 24.8747 9.42247 19.0221C9.36543 18.8403 9.11825 18.8296 9.04814 19.0019C8.39931 20.6335 6.72256 25.8051 9.35473 30.429C12.1937 35.4117 18.1995 35.2869 21.2655 33.4806C21.66 33.2489 21.5851 32.6571 21.1407 32.5454C19.9191 32.2364 17.8775 31.5662 16.1889 30.2412C16.3505 30.3196 19.4081 31.7967 22.4942 31.3012C23.048 31.2109 23.4532 30.7272 23.4508 30.1663C23.4484 29.5377 23.3058 28.6643 22.7152 27.7576C22.7152 27.7576 23.0836 28.776 22.9672 29.8312C22.9172 30.2804 22.5441 30.6262 22.0937 30.6619C20.3136 30.8021 15.4854 30.7581 12.1545 26.7938C12.0606 26.6821 11.8871 26.8069 11.9643 26.9317C13.1669 28.877 15.666 31.9952 19.6826 32.7926C19.8561 32.8282 19.8692 33.0683 19.7004 33.117C18.7367 33.382 16.7914 33.7123 14.5288 32.9637C10.1438 31.5163 8.29711 27.1658 9.1646 20.9852C9.19312 20.788 9.4605 20.7464 9.54368 20.9258C10.1093 22.17 11.7469 24.6976 15.8169 25.1622C21.2559 25.7825 25.0539 25.5306 24.7604 31.1134C24.6427 33.3725 22.4479 35.1348 19.9666 36.9494L19.4414 37.332C16.2994 39.6148 12.9055 42.039 12.7629 45.6777C12.7474 46.0473 13.2454 46.1816 13.4284 45.8619C14.9162 43.2713 19.8525 37.2797 34.1684 35.8632C34.4418 35.8371 34.4679 35.4473 34.1993 35.3879L34.197 35.3843Z" fill="url(#paint1_linear_1410_3692)"/>
<path d="M19.5888 37.2213C20.8366 36.9099 25.4248 32.7496 25.4913 31.1097C25.6006 28.4074 24.9067 25.7609 20.9899 24.9659C17.1896 24.1947 11.2194 24.8721 9.4226 19.0195C9.36556 18.8377 9.11838 18.827 9.04827 18.9993C8.39944 20.6309 6.72269 25.8025 9.35486 30.4264C12.1938 35.4091 18.1997 35.2843 21.2656 33.478C21.6601 33.2463 21.5852 32.6545 21.1408 32.5428C19.9192 32.2338 17.8776 31.5636 16.189 30.2386C16.3506 30.317 19.4082 31.7941 22.4943 31.2986C23.0481 31.2083 23.4533 30.7246 23.4509 30.1637C23.4486 29.5351 23.306 28.6617 22.7154 27.755C22.7154 27.755 23.0837 28.7734 22.9673 29.8286C22.9174 30.2778 22.5442 30.6236 22.0939 30.6593C20.3137 30.7995 15.4855 30.7555 12.1546 26.7912C12.0607 26.6795 11.8872 26.8043 11.9645 26.9291C13.1671 28.8744 15.6661 31.9926 19.6827 32.79C19.8562 32.8256 19.8693 33.0657 19.7005 33.1144C18.7368 33.3794 16.7915 33.7097 14.5289 32.9611C10.1439 31.5137 8.29724 27.1632 9.16473 20.9826C9.19325 20.7854 9.46063 20.7438 9.54381 20.9232C10.1095 22.1674 11.747 24.695 15.817 25.1596C21.2561 25.78 25.054 25.528 24.7605 31.1108C24.6369 33.4828 22.221 35.3081 19.5888 37.2225V37.2213Z" fill="white"/>
<path d="M47.3838 18.1804L46.216 18.0074V17.2866H50.3537V18.0074L48.9265 18.1804V27.1478L52.6461 27.0181L53.4967 24.596L54.3761 24.7258L53.8715 27.9984H46.1872V27.292L47.3838 27.1478V18.1804ZM56.9826 18.5553C56.675 18.5553 56.4443 18.4688 56.2905 18.2958C56.1368 18.1227 56.0599 17.9017 56.0599 17.6326C56.0599 17.325 56.1512 17.0703 56.3338 16.8685C56.526 16.6666 56.7855 16.5657 57.1123 16.5657C57.4391 16.5657 57.6794 16.6522 57.8332 16.8252C57.987 16.9982 58.0638 17.2193 58.0638 17.4884C58.0638 17.8152 57.9677 18.0747 57.7755 18.2669C57.5929 18.4591 57.3334 18.5553 56.997 18.5553H56.9826ZM56.4059 21.1071L55.3102 20.8476V20.0835L57.5448 19.8095H57.5737L57.9053 20.0691V27.1767L59.0586 27.292V27.9984H55.2381V27.292L56.4059 27.1623V21.1071ZM59.4192 19.997H62.7639V20.6746L61.7403 20.862L63.1964 25.0141L63.802 26.8451L64.321 25.0718L65.7771 20.862L64.7967 20.6746V19.997H67.7234V20.6746L66.9737 20.862L64.1912 28.1138H62.9658L60.0679 20.862L59.4192 20.6746V19.997ZM71.823 28.157C70.66 28.157 69.771 27.7774 69.1559 27.0181C68.5503 26.2588 68.2476 25.2448 68.2476 23.9761C68.2476 23.1399 68.4062 22.4046 68.7234 21.7703C69.0405 21.1359 69.4827 20.6457 70.0497 20.2997C70.6264 19.9537 71.28 19.7807 72.0104 19.7807C72.9043 19.7807 73.5963 20.0306 74.0865 20.5304C74.5863 21.0206 74.8506 21.727 74.8794 22.6497C74.8794 23.236 74.8458 23.6829 74.7785 23.9905H69.8191C69.8383 24.942 70.0593 25.7109 70.4822 26.2972C70.9051 26.8739 71.5058 27.1623 72.2844 27.1623C72.6688 27.1623 73.0677 27.095 73.481 26.9604C73.9039 26.8162 74.2307 26.648 74.4613 26.4558L74.7353 27.0902C74.4565 27.3785 74.0433 27.6284 73.4954 27.8399C72.9476 28.0513 72.3901 28.157 71.823 28.157ZM73.2936 23.2264C73.3224 23.0246 73.3368 22.8179 73.3368 22.6065C73.3272 21.9817 73.1926 21.4915 72.9331 21.1359C72.6832 20.7707 72.2844 20.5881 71.7365 20.5881C71.1791 20.5881 70.7321 20.7899 70.3957 21.1936C70.0689 21.5973 69.8815 22.2749 69.8335 23.2264H73.2936ZM77.171 17.2433L76.0032 17.0847V16.4648L78.3243 16.1909H78.3532L78.6703 16.4071V27.1767L79.8958 27.292V27.9984H76.0032V27.292L77.171 27.1623V17.2433ZM82.0873 31.5883C81.9239 31.5883 81.7605 31.5787 81.5971 31.5595C81.4433 31.5402 81.3328 31.5114 81.2655 31.473V30.2187C81.3232 30.2571 81.4337 30.286 81.5971 30.3052C81.7701 30.3244 81.9335 30.334 82.0873 30.334C82.5486 30.334 82.9523 30.1706 83.2983 29.8438C83.654 29.5267 83.9952 28.9115 84.322 27.9984H83.6299L80.8907 20.862L80.2275 20.6746V19.997H83.702V20.6746L82.5919 20.8476L84.0048 25.1006L84.668 27.2055L85.2879 25.0862L86.571 20.8476L85.6051 20.6746V19.997H88.5029V20.6746L87.782 20.8476C86.3692 25.1727 85.5378 27.6284 85.2879 28.2147C84.9611 29.0413 84.6632 29.6852 84.394 30.1466C84.1249 30.6175 83.8077 30.9732 83.4425 31.2135C83.0773 31.4633 82.6255 31.5883 82.0873 31.5883Z" fill="#312A50"/>
<path d="M58.3853 35.3595H57.9533V32.5002H57.9353L56.7525 35.3338H56.3617L55.1789 32.5002H55.1609V35.3595H54.7289V31.6491H55.2663L56.5468 34.7449H56.5674L57.8479 31.6491H58.3853V35.3595ZM61.404 34.9429V35.3595H59.1052V31.6491H61.404V32.0657H59.5681V33.2562H61.3088V33.6676H59.5681V34.9429H61.404ZM64.3147 34.9429V35.3595H62.0159V31.6491H64.3147V32.0657H62.4788V33.2562H64.2195V33.6676H62.4788V34.9429H64.3147ZM66.328 35.3595H65.8652V32.0657H64.6952V31.6491H67.4979V32.0657H66.328V35.3595ZM68.4493 35.3595H67.9865V31.6491H68.4493V35.3595ZM69.627 35.3595H69.1693V31.6491H69.6193L71.6506 34.5624H71.6737V31.6491H72.1314V35.3595H71.6814L69.6501 32.4565H69.627V35.3595ZM75.9806 33.8244C75.9806 34.8272 75.397 35.4212 74.407 35.4212C73.3708 35.4212 72.7074 34.6652 72.7074 33.485C72.7074 32.3254 73.3682 31.5874 74.407 31.5874C75.2093 31.5874 75.8187 32.0631 75.9575 32.801H75.4715C75.3173 32.2996 74.929 32.0142 74.407 32.0142C73.6433 32.0142 73.1831 32.5645 73.1831 33.4824C73.1831 34.4158 73.6511 34.9944 74.407 34.9944C75.0653 34.9944 75.5178 34.5675 75.5178 33.9453V33.8784H74.4713V33.4722H75.9806V33.8244ZM76.3972 34.3387H76.8626C76.9063 34.7398 77.2869 35.0046 77.8166 35.0046C78.318 35.0046 78.6831 34.7398 78.6831 34.3747C78.6831 34.061 78.4645 33.8681 77.9657 33.7396L77.49 33.6161C76.806 33.4413 76.5026 33.1405 76.5026 32.6365C76.5026 32.0194 77.0426 31.5874 77.814 31.5874C78.5519 31.5874 79.0868 32.0245 79.1073 32.6468H78.6445C78.6034 32.2482 78.282 32.0039 77.7986 32.0039C77.3177 32.0039 76.9835 32.2534 76.9835 32.6159C76.9835 32.8962 77.1892 33.0633 77.6931 33.1945L78.0814 33.2973C78.8502 33.4902 79.1613 33.7858 79.1613 34.3181C79.1613 34.9969 78.6265 35.4212 77.7728 35.4212C76.986 35.4212 76.4409 34.9944 76.3972 34.3387Z" fill="#312A50"/>
<defs>
<linearGradient id="paint0_linear_1410_3692" x1="-0.000963498" y1="21.4388" x2="39.7811" y2="21.4388" gradientUnits="userSpaceOnUse">
<stop stop-color="#C52127"/>
<stop offset="1" stop-color="#F47B20"/>
</linearGradient>
<linearGradient id="paint1_linear_1410_3692" x1="7.92279" y1="32.4574" x2="34.3859" y2="32.4574" gradientUnits="userSpaceOnUse">
<stop stop-color="#178FC3"/>
<stop offset="1" stop-color="#263877"/>
</linearGradient>
</defs>
</svg>
